<?xml version="1.0" encoding="UTF-8" standalone="no"?>
<svg
   xmlns:dc="http://purl.org/dc/elements/1.1/"
   xmlns:cc="http://creativecommons.org/ns#"
   xmlns:rdf="http://www.w3.org/1999/02/22-rdf-syntax-ns#"
   xmlns:svg="http://www.w3.org/2000/svg"
   xmlns="http://www.w3.org/2000/svg"
   viewBox="0 0 919.18665 452.49332"
   height="452.49332"
   width="919.18665"
   xml:space="preserve"
   id="svg2"
   version="1.1"><metadata
     id="metadata8"><rdf:RDF><cc:Work
         rdf:about=""><dc:format>image/svg+xml</dc:format><dc:type
           rdf:resource="http://purl.org/dc/dcmitype/StillImage" /></cc:Work></rdf:RDF></metadata><defs
     id="defs6" /><g
     transform="matrix(1.3333333,0,0,-1.3333333,0,452.49333)"
     id="g10"><g
       transform="scale(0.1)"
       id="g12"><path
         id="path14"
         style="fill:#0b335e;fill-opacity:1;fill-rule:nonzero;stroke:none"
         d="M 2691.11,1227.85 H 2454.9 v 10.02 h 17.44 c 24.31,0 33.28,7.93 33.28,34.89 v 234.06 c 0,28.01 -8.45,39.65 -41.73,39.65 h -7.41 v 10.06 h 155.87 v -10.06 h -19.52 c -34.36,0 -43.35,-3.71 -43.35,-36.47 v -243.61 c 0,-14.24 5.81,-19.53 21.14,-19.53 h 77.67 c 31.17,0 40.69,12.15 73.99,58.11 h 9.53 l -40.7,-77.12" /><path
         id="path16"
         style="fill:#0b335e;fill-opacity:1;fill-rule:nonzero;stroke:none"
         d="m 3200.89,1556.53 v -10.06 c -35.41,-0.53 -48.07,-14.82 -48.07,-48.63 v -142.66 c 0,-65.53 -41.76,-135.78 -156.42,-135.78 -100.94,0 -152.7,57.58 -152.7,133.16 v 154.26 c 0,33.83 -9.55,39.12 -45.49,39.65 v 10.06 h 135.82 v -10.06 h -4.74 c -29.09,0 -41.74,-7.93 -41.74,-38.58 V 1361 c 0,-71.35 41.74,-114.14 120.46,-114.14 59.71,0 120.49,24.82 120.49,114.67 v 123.12 c 0,50.7 -7.92,59.71 -51.78,61.82 v 10.06 h 124.17" /><path
         id="path18"
         style="fill:#0b335e;fill-opacity:1;fill-rule:nonzero;stroke:none"
         d="m 3496.27,1227.85 h -236.21 v 10.02 h 17.44 c 24.31,0 33.31,7.93 33.31,34.89 v 234.06 c 0,28.01 -8.47,39.65 -41.77,39.65 h -7.38 v 10.06 h 155.89 v -10.06 h -19.59 c -34.32,0 -43.3,-3.71 -43.3,-36.47 v -243.61 c 0,-14.24 5.81,-19.53 21.13,-19.53 h 77.68 c 31.18,0 40.69,12.15 73.98,58.11 h 9.5 l -40.68,-77.12" /><path
         id="path20"
         style="fill:#0b335e;fill-opacity:1;fill-rule:nonzero;stroke:none"
         d="m 3839.09,1346.73 h -10.05 c -4.24,37.53 -14.24,41.77 -35.94,41.77 h -89.29 v -112.58 c 0,-24.3 9,-29.06 28.53,-29.06 h 81.39 c 36.98,0 48.06,14.24 61.29,59.71 h 9.51 l -8.43,-78.72 h -280.62 v 10.02 h 14.81 c 42.27,0 49.65,11.63 49.65,43.34 v 222.97 c 0,29.59 -6.88,42.29 -42.26,42.29 h -11.62 v 10.06 h 253.62 l 4.24,-73.46 h -9.5 c -6.87,44.9 -20.1,54.4 -39.11,54.4 h -111.5 v -129.99 h 94.58 c 19.04,0 28,9.01 30.65,39.65 h 10.05 v -100.4" /><path
         id="path22"
         style="fill:#0b335e;fill-opacity:1;fill-rule:nonzero;stroke:none"
         d="m 4139.22,1520.06 -44.93,-123.16 h 91.45 z m -53.89,-146.38 -30.66,-82.97 c -3.68,-10.04 -10.54,-25.9 -10.54,-33.29 0,-14.25 13.7,-19.55 42.79,-19.55 h 8.43 v -10.02 h -122.04 v 10.02 c 34.35,0.53 40.17,6.35 57.06,52.31 l 96.15,262.64 -4.74,11.62 h 45.99 l 110.44,-293.28 c 10.56,-27.99 21.65,-33.29 48.08,-33.29 v -10.02 H 4181 v 10.02 h 13.7 c 30.13,0 41.23,3.17 41.23,17.97 0,8.44 -3.71,16.37 -5.83,21.68 l -35.4,96.16 h -109.37" /><path
         id="path24"
         style="fill:#0b335e;fill-opacity:1;fill-rule:nonzero;stroke:none"
         d="M 402.676,946.84 V 936.781 C 367.277,936.25 354.57,921.98 354.57,888.148 V 745.469 c 0,-65.528 -41.761,-135.758 -156.394,-135.758 -100.9299,0 -152.7424,57.578 -152.7424,133.141 v 154.277 c 0,33.812 -9.4961,39.121 -45.4336,39.652 v 10.059 h 135.813 v -10.059 h -4.747 c -29.082,0 -41.7535,-7.949 -41.7535,-38.59 V 751.289 c 0,-71.348 41.7535,-114.117 120.4535,-114.117 59.726,0 120.507,24.808 120.507,114.648 v 123.141 c 0,50.687 -7.929,59.687 -51.812,61.82 v 10.059 h 124.215" /><path
         id="path26"
         style="fill:#0b335e;fill-opacity:1;fill-rule:nonzero;stroke:none"
         d="M 831.211,614.441 557.48,900.84 V 674.16 c 0,-38.039 8.442,-45.988 53.352,-45.988 v -10.024 h -122.57 v 10.024 h 2.113 c 32.762,0 43.32,11.109 43.32,35.41 v 259.977 c -12.152,8.453 -25.91,12.691 -44.379,13.222 v 10.059 h 82.938 L 821.156,687.352 V 897.66 c 0,32.231 -9.523,38.051 -51.781,39.121 v 10.059 h 123.652 v -10.059 c -39.644,0 -48.109,-6.89 -48.109,-27.461 V 614.441 h -13.707" /><path
         id="path28"
         style="fill:#0b335e;fill-opacity:1;fill-rule:nonzero;stroke:none"
         d="M 1128.15,618.148 H 999.723 v 10.024 c 32.767,1.578 39.647,10.058 39.647,45.469 v 225.07 c 0,28.539 -10.03,36.469 -39.647,38.07 v 10.059 h 128.427 v -10.059 c -33.29,0 -44.9,-7.422 -44.9,-42.832 V 669.922 c 0,-31.172 8.46,-41.75 44.9,-41.75 v -10.024" /><path
         id="path30"
         style="fill:#0b335e;fill-opacity:1;fill-rule:nonzero;stroke:none"
         d="m 1404.92,609.711 -114.66,285.84 c -13.2,33.281 -19.56,41.23 -51.79,41.23 v 10.059 h 145.33 v -10.059 c -48.63,-1.07 -60.25,-12.172 -50.22,-36.461 l 95.11,-236.738 83.51,218.219 c 5.82,14.801 8.98,25.39 8.98,32.769 0,15.84 -13.22,22.211 -49.15,22.211 v 10.059 h 122.6 v -10.059 c -27.5,0 -41.75,-12.691 -54.44,-45.449 L 1431.33,609.711 h -26.41" /><path
         id="path32"
         style="fill:#0b335e;fill-opacity:1;fill-rule:nonzero;stroke:none"
         d="m 1908.5,737.031 h -10.06 c -4.23,37.539 -14.26,41.758 -35.93,41.758 h -89.28 V 666.211 c 0,-24.27 8.96,-29.039 28.52,-29.039 h 81.37 c 37,0 48.09,14.238 61.31,59.687 h 9.51 l -8.45,-78.711 h -280.6 v 10.024 h 14.79 c 42.26,0 49.67,11.66 49.67,43.359 V 894.48 c 0,29.61 -6.88,42.301 -42.28,42.301 h -11.6 v 10.059 h 253.63 l 4.23,-73.461 h -9.54 c -6.85,44.902 -20.05,54.402 -39.08,54.402 h -111.48 v -129.98 h 94.57 c 19.03,0 28.01,9 30.64,39.64 h 10.06 v -100.41" /><path
         id="path34"
         style="fill:#0b335e;fill-opacity:1;fill-rule:nonzero;stroke:none"
         d="m 2156.29,767.148 c 12.7,-1.578 20.65,-1.046 32.77,-1.046 58.67,0 97.23,24.796 97.23,88.238 0,49.14 -22.19,87.211 -103.56,87.211 -10.04,0 -16.9,0 -26.44,-1.082 z m 0,-99.328 c 0,-31.699 12.7,-39.648 42.3,-39.648 h 12.18 v -10.024 h -149.58 v 10.024 h 8.99 c 31.17,0 42.27,8.469 42.27,43.879 V 894.48 c 0,32.77 -8.98,42.301 -39.61,42.301 h -11.65 v 10.059 c 12.7,0 44.93,2.07 66.58,3.14 21.68,1.059 32.23,1.59 66.58,1.59 97.75,0 141.61,-40.14 141.61,-94.07 0,-39.629 -26.93,-72.91 -70.26,-85.578 19.54,-15.34 35.41,-30.121 60.21,-54.961 l 41.78,-41.742 c 31.15,-31.207 63.4,-50.758 104.09,-53.399 v -9.511 c -92.46,-4.2 -116.27,15.863 -163.28,62.91 l -34.86,34.883 c -23.27,23.218 -41.77,38.558 -54.46,46.988 -13.18,-0.508 -21.65,-1.051 -35.92,-1.051 -11.61,0 -18.5,0.543 -26.97,1.051 v -89.27" /><path
         id="path36"
         style="fill:#0b335e;fill-opacity:1;fill-rule:nonzero;stroke:none"
         d="m 2518.67,698.461 c 11.12,-47.051 48.08,-74.531 89.31,-74.531 35.38,0 72.9,20.621 72.9,62.359 0,76.102 -169.61,99.359 -169.61,191.84 0,43.851 40.15,76.621 94.07,76.621 44.37,0 53.37,-13.199 71.84,-13.199 4.23,0 6.35,1.051 9.53,5.289 h 8.46 l 8.97,-67.11 h -8.97 c -14.81,38.012 -48.62,62.34 -85.1,62.34 -34.87,0 -59.18,-20.09 -59.18,-49.699 0,-75.019 169.63,-95.101 169.63,-192.332 0,-51.789 -45.95,-90.328 -107.8,-90.328 -29.05,0 -66.05,14.219 -73.43,14.219 -4.76,0 -8.45,-2.641 -10.57,-5.782 h -9 l -11.1,80.313 h 10.05" /><path
         id="path38"
         style="fill:#0b335e;fill-opacity:1;fill-rule:nonzero;stroke:none"
         d="m 2981.02,618.148 h -128.39 v 10.024 c 32.77,1.578 39.63,10.058 39.63,45.469 v 225.07 c 0,28.539 -10.05,36.469 -39.63,38.07 v 10.059 h 128.39 v -10.059 c -33.28,0 -44.9,-7.422 -44.9,-42.832 V 669.922 c 0,-31.172 8.44,-41.75 44.9,-41.75 v -10.024" /><path
         id="path40"
         style="fill:#0b335e;fill-opacity:1;fill-rule:nonzero;stroke:none"
         d="m 3258.35,666.762 c 0,-28.532 9.47,-38.59 41.72,-38.59 h 19.57 V 618.148 H 3153.2 v 10.024 h 19.52 c 32.23,0 41.75,10.058 41.75,38.59 v 261.019 h -91.92 c -21.18,0 -30.67,-12.152 -38.59,-58.64 h -9.52 l 8.47,85.609 h 10.02 c 0.53,-3.18 2.65,-5.289 5.82,-6.371 3.15,-1.008 6.86,-1.539 10.56,-1.539 h 254.17 c 7.38,0 15.32,1.539 16.39,7.91 h 10.05 l 8.44,-85.609 h -9.5 c -7.94,46.488 -17.47,58.64 -38.58,58.64 h -91.93 V 666.762" /><path
         id="path42"
         style="fill:#0b335e;fill-opacity:1;fill-rule:nonzero;stroke:none"
         d="m 3727.96,898.711 c 16.92,29.07 6.87,38.07 -26.94,38.07 v 10.059 h 119.41 v -10.059 c -35.93,-2.66 -51.25,-16.91 -66.06,-41.781 l -87.71,-148.469 v -79.242 c 0,-28.008 10.05,-39.117 42.28,-39.117 h 6.87 V 618.148 H 3570.5 v 10.024 h 10.03 c 32.79,0 42.26,12.18 42.26,38.039 v 74.539 l -94.05,146.871 c -25.87,40.68 -38.04,48.09 -72.4,49.16 v 10.059 h 140.56 v -10.059 c -41.22,0 -43.83,-10.082 -27.99,-34.359 l 84.55,-130.5 74.5,126.789" /><path
         id="path44"
         style="fill:#0b335e;fill-opacity:1;fill-rule:nonzero;stroke:none"
         d="m 988.453,331.84 c -92.988,0 -129.98,-86.68 -129.98,-150.098 0,-98.8123 67.105,-168.5506 152.207,-168.5506 86.12,0 127.34,76.1094 127.34,151.1486 0,98.281 -62.35,167.5 -149.567,167.5 z M 999.563,0 c -103.575,0 -190.77,66.582 -190.77,165.391 0,105.14 80.852,179.668 193.427,179.668 99.87,0 185.47,-68.161 185.47,-163.317 C 1187.69,75.0391 1102.09,0 999.563,0" /><path
         id="path46"
         style="fill:#0b335e;fill-opacity:1;fill-rule:nonzero;stroke:none"
         d="m 1508.44,134.73 h -8.99 c -1.06,30.661 -12.18,40.18 -37.53,40.18 h -97.74 V 59.1602 c 0,-29.5704 6.34,-40.6797 45.95,-40.6797 V 8.44141 h -128.4 V 18.4805 c 32.78,2.1289 38.56,8.9804 38.56,51.8008 V 277.422 c 0,33.808 -2.64,49.148 -39.6,49.668 v 10.039 h 236.72 V 274.77 h -8.97 c -0.52,30.64 -11.11,43.32 -43.86,43.32 h -100.4 V 193.91 h 104.61 c 19.54,0 29.07,11.11 30.66,33.832 h 8.99 V 134.73" /><path
         id="path48"
         style="fill:#0b335e;fill-opacity:1;fill-rule:nonzero;stroke:none"
         d="m 1949.42,57.0703 c 0,-28.5508 9.52,-38.5898 41.75,-38.5898 h 19.56 V 8.44141 H 1844.28 V 18.4805 h 19.55 c 32.24,0 41.76,10.039 41.76,38.5898 V 318.09 h -91.98 c -21.11,0 -30.65,-12.149 -38.56,-58.629 h -9.5 l 8.44,85.598 h 10.03 c 0.53,-3.18 2.65,-5.289 5.83,-6.368 3.17,-1.031 6.87,-1.562 10.57,-1.562 h 254.16 c 7.41,0 15.34,1.562 16.4,7.93 h 10.03 l 8.44,-85.598 h -9.49 c -7.92,46.48 -17.45,58.629 -38.56,58.629 h -91.98 V 57.0703" /><path
         id="path50"
         style="fill:#0b335e;fill-opacity:1;fill-rule:nonzero;stroke:none"
         d="m 2435.98,127.332 h -10.03 c -4.23,37.539 -14.29,41.77 -35.94,41.77 h -89.3 V 56.5508 c 0,-24.3203 8.97,-29.0899 28.52,-29.0899 h 81.37 c 36.98,0 48.12,14.2383 61.29,59.711 h 9.52 L 2472.94,8.44141 H 2192.36 V 18.4805 h 14.8 c 42.28,0 49.7,11.6406 49.7,43.3398 V 284.789 c 0,29.59 -6.88,42.301 -42.3,42.301 h -11.64 v 10.039 h 253.67 l 4.23,-73.449 h -9.53 c -6.86,44.922 -20.07,54.41 -39.11,54.41 H 2300.71 V 188.109 h 94.58 c 19.01,0 28.02,8.981 30.66,39.633 h 10.03 v -100.41" /><path
         id="path52"
         style="fill:#0b335e;fill-opacity:1;fill-rule:nonzero;stroke:none"
         d="m 2898.36,250.449 c -17.47,49.16 -62.9,81.391 -120.51,81.391 -88.25,0 -143.2,-63.93 -143.2,-152.738 0,-95.6215 68.69,-165.9106 149.02,-165.9106 41.76,0 92.99,14.2695 128.92,78.2188 h 10.05 C 2915.78,67.6211 2901.5,34.8711 2888.83,14.2422 2855,19.0117 2831.75,0 2769.4,0 c -107.25,0 -184.41,70.8008 -184.41,168.582 0,102.477 79.26,176.477 189.67,176.477 66.59,0 95.13,-21.149 111.51,-21.149 5.83,0 8.48,1.582 9.54,3.18 h 7.91 l 4.73,-76.641 h -9.99" /><path
         id="path54"
         style="fill:#0b335e;fill-opacity:1;fill-rule:nonzero;stroke:none"
         d="M 3089.48,165.391 V 64.9805 c 0,-34.3321 6.87,-46.5 42.28,-46.5 h 1.58 V 8.44141 H 3000.72 V 18.4805 h 3.16 c 31.17,0 41.77,8.4609 41.77,38.5898 V 289.551 c 0,27.48 -8.99,35.41 -38.06,37.539 v 10.039 h 125.75 V 327.09 c -37.51,0 -43.86,-10.059 -43.86,-50.719 v -91.973 h 207.14 V 288.5 c 0,28.012 -8.99,38.59 -41.74,38.59 h -10.02 v 10.039 h 135.8 V 327.09 c -31.71,-1.051 -40.18,-10.578 -40.18,-43.36 V 64.4609 c 0,-37.5195 10.6,-45.9804 42.3,-45.9804 h 5.26 V 8.44141 H 3238.51 V 18.4805 h 16.37 c 34.35,0 41.74,12.1679 41.74,39.6484 V 165.391 h -207.14" /><path
         id="path56"
         style="fill:#0b335e;fill-opacity:1;fill-rule:nonzero;stroke:none"
         d="m 3825.54,4.75 -273.7,286.41 V 64.4609 c 0,-38.0507 8.44,-45.9804 53.37,-45.9804 V 8.44141 H 3482.63 V 18.4805 h 2.1 c 32.77,0 43.32,11.1093 43.32,35.4101 V 313.852 c -12.15,8.48 -25.88,12.718 -44.37,13.238 v 10.039 h 82.97 L 3815.54,77.6406 V 287.969 c 0,32.23 -9.52,38.07 -51.8,39.121 v 10.039 h 123.65 V 327.09 c -39.62,0 -48.09,-6.891 -48.09,-27.481 V 4.75 h -13.76" /><path
         id="path58"
         style="fill:#0b335e;fill-opacity:1;fill-rule:nonzero;stroke:none"
         d="m 4135.73,331.84 c -92.97,0 -129.98,-86.68 -129.98,-150.098 0,-98.8123 67.11,-168.5506 152.16,-168.5506 86.18,0 127.37,76.1094 127.37,151.1486 0,98.281 -62.37,167.5 -149.55,167.5 z M 4146.83,0 c -103.57,0 -190.78,66.582 -190.78,165.391 0,105.14 80.88,179.668 193.42,179.668 99.88,0 185.48,-68.161 185.48,-163.317 C 4334.95,75.0391 4249.35,0 4146.83,0" /><path
         id="path60"
         style="fill:#0b335e;fill-opacity:1;fill-rule:nonzero;stroke:none"
         d="M 4630.85,8.44141 H 4394.64 V 18.4805 h 17.44 c 24.32,0 33.29,7.9297 33.29,34.8789 V 287.441 c 0,27.989 -8.44,39.649 -41.73,39.649 h -7.39 v 10.039 H 4552.1 V 327.09 h -19.53 c -34.35,0 -43.35,-3.711 -43.35,-36.461 V 47 c 0,-14.2383 5.82,-19.5391 21.15,-19.5391 h 77.66 c 31.17,0 40.7,12.168 74,58.1289 h 9.53 L 4630.85,8.44141" /><path
         id="path62"
         style="fill:#0b335e;fill-opacity:1;fill-rule:nonzero;stroke:none"
         d="m 4915,331.84 c -92.99,0 -129.99,-86.68 -129.99,-150.098 0,-98.8123 67.11,-168.5506 152.19,-168.5506 86.14,0 127.37,76.1094 127.37,151.1486 0,98.281 -62.37,167.5 -149.57,167.5 z M 4926.13,0 c -103.59,0 -190.8,66.582 -190.8,165.391 0,105.14 80.87,179.668 193.43,179.668 99.87,0 185.46,-68.161 185.46,-163.317 C 5114.22,75.0391 5028.63,0 4926.13,0" /><path
         id="path64"
         style="fill:#0b335e;fill-opacity:1;fill-rule:nonzero;stroke:none"
         d="M 5504.68,33.2813 C 5452.41,6.33203 5385.3,0 5363.09,0 c -115.72,0 -169.63,89.3008 -169.63,166.449 0,79.242 55.5,178.61 184.42,178.61 56.56,0 94.05,-17.969 105.17,-17.969 4.77,0 9,1.058 12.16,3.691 h 7.39 V 245.16 h -10.55 c -14.3,66.07 -59.21,86.68 -108.33,86.68 -93,0 -140.59,-77.149 -140.59,-162.231 0,-108.3199 76.11,-156.4176 136.87,-156.4176 24.29,0 51.26,5.2891 80.87,20.0899 v 66.5898 c 0,30.1089 -10.59,40.1489 -42.29,40.1489 h -19.55 v 9.5 h 142.66 v -9.5 c -26.41,-1.579 -37.01,-10.559 -37.01,-33.278 V 33.2813" /><path
         id="path66"
         style="fill:#0b335e;fill-opacity:1;fill-rule:nonzero;stroke:none"
         d="m 5867.17,289.031 c 16.94,29.059 6.89,38.059 -26.94,38.059 v 10.039 h 119.46 V 327.09 c -35.95,-2.649 -51.3,-16.91 -66.05,-41.75 l -87.75,-148.5 V 57.6016 c 0,-28.0118 10.06,-39.1211 42.29,-39.1211 h 6.88 V 8.44141 H 5709.72 V 18.4805 h 10.05 c 32.77,0 42.28,12.1679 42.28,38.0703 v 74.4882 l -94.08,146.871 c -25.89,40.711 -38.03,48.129 -72.37,49.18 v 10.039 h 140.53 V 327.09 c -41.19,0 -43.85,-10.059 -27.99,-34.348 l 84.55,-130.531 74.48,126.82" /><path
         id="path68"
         style="fill:#0b335e;fill-opacity:1;fill-rule:nonzero;stroke:none"
         d="m 6893.89,1562.03 c -274.36,-288.34 -358.17,-665.581 -220.98,-898.018 0,0 -705.91,-319.481 -1373.72,-28.321 -703.06,306.481 -1280.74,-121.25 -1280.74,-121.25 l -0.68,172.539 c 593.59,133.262 502.15,316.15 516.17,957.67 v 925.96 c 0,645.88 -10.82,650.78 -508.54,686.34 v 136.28 c 0,0 284.2,1.01 759.75,0 475.56,-1 730.37,0 730.37,0 v -136.28 c -509.6,-35.56 -520.42,-40.46 -520.42,-686.34 0,0 -2.67,-485.26 0,-939.67 2.69,-451.54 8.74,-631.6 243.46,-813.768 169.65,-131.66 353.72,-163.672 533.93,-166.031 180.21,-2.371 460.45,82.5 602.28,234.39 141.91,151.909 188.44,296.329 188.44,296.329 50.53,108.18 99.58,244.98 150.77,401.89 l 143.74,-16.64 36.17,-5.08" /><path
         id="path70"
         style="fill:#0b335e;fill-opacity:1;fill-rule:nonzero;stroke:none"
         d="m 4111.24,1645.49 c 0,-19.53 15.88,-35.41 35.41,-35.41 19.57,0 35.41,15.88 35.41,35.41 0,19.59 -15.84,35.41 -35.41,35.41 -19.53,0 -35.41,-15.82 -35.41,-35.41 z m 85.88,0 c 0,-27.73 -22.72,-50.49 -50.47,-50.49 -27.73,0 -50.49,22.76 -50.49,50.49 0,27.77 22.76,50.49 50.49,50.49 27.75,0 50.47,-22.72 50.47,-50.49" /></g></g></svg>